<svg xmlns="http://www.w3.org/2000/svg" width="3960" height="505.20000000000005" viewBox="0 0 660 84.2"><g transform="translate(558 35) rotate(-12) scale(0.85)"><path d="M-13 3 Q-5 -4 6 -1 Q10 -2 13 -8 Q16 -13 20 -10 L24 -9 L19 -7 Q16 -7 15 -1 Q12 6 5 7 Q-5 8 -13 3Z" fill="#627F8D"/><path d="M0 2 Q-10 -1 -15 -14 Q-3 -12 7 1 M1 4 Q-7 7 -13 14 Q-1 13 8 4" fill="#8FA7B0"/></g><g transform="translate(602 23) rotate(-12) scale(0.52)"><path d="M-13 3 Q-5 -4 6 -1 Q10 -2 13 -8 Q16 -13 20 -10 L24 -9 L19 -7 Q16 -7 15 -1 Q12 6 5 7 Q-5 8 -13 3Z" fill="#627F8D"/><path d="M0 2 Q-10 -1 -15 -14 Q-3 -12 7 1 M1 4 Q-7 7 -13 14 Q-1 13 8 4" fill="#8FA7B0"/></g><g transform="translate(529 53) rotate(-12) scale(0.48)"><path d="M-13 3 Q-5 -4 6 -1 Q10 -2 13 -8 Q16 -13 20 -10 L24 -9 L19 -7 Q16 -7 15 -1 Q12 6 5 7 Q-5 8 -13 3Z" fill="#627F8D"/><path d="M0 2 Q-10 -1 -15 -14 Q-3 -12 7 1 M1 4 Q-7 7 -13 14 Q-1 13 8 4" fill="#8FA7B0"/></g><path d="M585 58 q-3 5 -1 7 q4 0 3 -3Z M626 45 q-3 5 -1 7 q4 0 3 -3Z M510 26 q-3 5 -1 7 q4 0 3 -3Z" fill="#9FBFCB"/></svg>